<?xml version="1.0" encoding="windows-1252"?>
<!-- Generator: Adobe Illustrator 19.0.0, SVG Export Plug-In . SVG Version: 6.00 Build 0)  -->
<svg version="1.1" id="Capa_1" xmlns="http://www.w3.org/2000/svg" xmlns:xlink="http://www.w3.org/1999/xlink" x="0px" y="0px" viewBox="0 0 512 512" style="enable-background:new 0 0 512 512;" xml:space="preserve">
<path style="fill:#FF6A00;" d="M375.175,303.712L201.238,477.649C179.083,499.803,149.618,512,118.292,512  c-31.332,0.007-60.791-12.198-82.945-34.351l-0.983-0.983c-45.737-45.737-45.737-120.154,0-165.889L208.301,136.84  c13.336-13.336,35.037-13.343,48.381,0l118.487,118.484C388.511,268.667,388.511,290.375,375.175,303.712z"/>
<path style="fill:#FFAC56;" d="M507.278,171.609l-54.519,54.519c-10.748,10.748-24.876,16.122-38.991,16.122  c-14.128,0-28.242-5.374-38.998-16.129l-88.884-88.884c-21.503-21.503-21.496-56.485,0-77.981l54.569-54.569  c4.299-4.299,10.55-5.784,16.327-3.854c5.763,1.93,9.878,6.866,10.727,12.891l7.05,49.831l52.362,8.308  c3.387,0.544,6.406,2.135,8.733,4.448c2.249,2.234,3.84,5.141,4.441,8.401l10.083,54.448l47.604,5.332  c6.053,0.679,11.257,4.822,13.272,10.571C513.062,160.803,511.585,167.302,507.278,171.609z"/>
<path style="fill:#FF3A00;" d="M375.175,303.712L201.238,477.649C179.083,499.803,149.618,512,118.292,512  c-31.332,0.007-60.791-12.198-82.945-34.351l-0.516-0.516l281.072-281.072l59.264,59.264  C388.511,268.667,388.511,290.375,375.175,303.712z"/>
<path style="fill:#FF7B59;" d="M507.278,171.609l-54.519,54.519c-10.748,10.748-24.876,16.122-38.991,16.122  c-14.128,0-28.242-5.374-38.998-16.129l-44.464-44.464L435.654,76.31c2.249,2.234,3.84,5.141,4.441,8.401l10.083,54.448  l47.604,5.332c6.053,0.679,11.257,4.822,13.272,10.571C513.062,160.803,511.585,167.302,507.278,171.609z"/>
<g>
</g>
<g>
</g>
<g>
</g>
<g>
</g>
<g>
</g>
<g>
</g>
<g>
</g>
<g>
</g>
<g>
</g>
<g>
</g>
<g>
</g>
<g>
</g>
<g>
</g>
<g>
</g>
<g>
</g>
</svg>